<svg width="60" height="60" viewBox="0 0 60 60" fill="none" xmlns="http://www.w3.org/2000/svg">
  <g stroke="#111722" stroke-width="2.2" stroke-linejoin="round">
    <g transform="rotate(-42 30 30)">
      <path d="M30 5L35.5 14L33.5 33H26.5L24.5 14L30 5Z" fill="#865047" />
      <path d="M21 32H39L37 38H23L21 32Z" fill="#8F774A" />
      <rect x="27" y="37" width="6" height="13" rx="2" fill="#59372F" />
      <path d="M30 48L34 53L30 57L26 53L30 48Z" fill="#8F774A" />
    </g>

    <g transform="rotate(42 30 30)">
      <path d="M30 5L35.5 14L33.5 33H26.5L24.5 14L30 5Z" fill="#526F84" />
      <path d="M21 32H39L37 38H23L21 32Z" fill="#7C8993" />
      <rect x="27" y="37" width="6" height="13" rx="2" fill="#334A5E" />
      <path d="M30 48L34 53L30 57L26 53L30 48Z" fill="#628299" />
    </g>
  </g>
</svg>
