<svg width="72" height="72" viewBox="0 0 72 72" fill="none" xmlns="http://www.w3.org/2000/svg">
  <defs>
    <filter id="locked-active-shadow" x="6" y="4" width="60" height="66" filterUnits="userSpaceOnUse">
      <feDropShadow dx="0" dy="2" stdDeviation="1.5" flood-color="#090B12" flood-opacity="0.55" />
    </filter>
  </defs>

  <g filter="url(#locked-active-shadow)">
    <path d="M24 33V24C24 16.3 29.4 11 36 11C42.6 11 48 16.3 48 24V33" stroke="#111722" stroke-width="11" stroke-linecap="round" />
    <path d="M24 33V24C24 16.3 29.4 11 36 11C42.6 11 48 16.3 48 24V33" stroke="#AFC7D3" stroke-width="6" stroke-linecap="round" />
    <path d="M24 24C24 16.3 29.4 11 36 11" stroke="#E8F7FC" stroke-width="2" stroke-linecap="round" />

    <rect x="14" y="30" width="44" height="34" rx="8" fill="#657B89" stroke="#111722" stroke-width="2.6" />
    <path d="M18 34H54V40H18V34Z" fill="#9CB2BD" />
    <rect x="20" y="38" width="32" height="20" rx="4" fill="#516673" stroke="#8EA5B0" stroke-width="1.5" />
    <path d="M39.5 46.5C39.5 44.6 37.9 43 36 43C34.1 43 32.5 44.6 32.5 46.5C32.5 47.8 33.2 48.9 34.2 49.5L33.5 55H38.5L37.8 49.5C38.8 48.9 39.5 47.8 39.5 46.5Z" fill="#111722" />
  </g>

  <path d="M9 34H15M12 31V37" stroke="#63E0FF" stroke-width="2.5" stroke-linecap="round" />
  <path d="M57 18H63M60 15V21" stroke="#FFD84A" stroke-width="2.5" stroke-linecap="round" />
</svg>
