<?xml version="1.0" encoding="UTF-8"?>
<svg xmlns="http://www.w3.org/2000/svg" xmlns:xlink="http://www.w3.org/1999/xlink" width="72.91" height="72.91" viewBox="0 0 72.91 72.91">
  <defs>
    <filter id="fx0">
      <feGaussianBlur in="SourceAlpha" stdDeviation="0" result="fx0_is_blur"/>
      <feOffset dx="-2" dy="0" result="fx0_is_off"/>
      <feComposite in="SourceAlpha" in2="fx0_is_off" operator="out" result="fx0_is_inv"/>
      <feFlood flood-color="#000000" flood-opacity="0.25"/>
      <feComposite in2="fx0_is_inv" operator="in" result="fx0_is_shadow"/>
      <feComposite in="fx0_is_shadow" in2="SourceGraphic" operator="over"/>
    </filter>
    <filter id="fx1">
      <feGaussianBlur in="SourceAlpha" stdDeviation="0" result="fx1_is_blur"/>
      <feOffset dx="-2" dy="0" result="fx1_is_off"/>
      <feComposite in="SourceAlpha" in2="fx1_is_off" operator="out" result="fx1_is_inv"/>
      <feFlood flood-color="#838A8F" flood-opacity="1"/>
      <feComposite in2="fx1_is_inv" operator="in" result="fx1_is_shadow"/>
      <feComposite in="fx1_is_shadow" in2="SourceGraphic" operator="over"/>
    </filter>
    <filter id="fx2">
      <feGaussianBlur in="SourceAlpha" stdDeviation="0" result="fx2_is_blur"/>
      <feOffset dx="0.7" dy="0.8" result="fx2_is_off"/>
      <feComposite in="SourceAlpha" in2="fx2_is_off" operator="out" result="fx2_is_inv"/>
      <feFlood flood-color="#AAB6BC" flood-opacity="1"/>
      <feComposite in2="fx2_is_inv" operator="in" result="fx2_is_shadow"/>
      <feComposite in="fx2_is_shadow" in2="SourceGraphic" operator="over"/>
      <feGaussianBlur in="SourceAlpha" stdDeviation="0" result="fx2_is_blur"/>
      <feOffset dx="-1.5" dy="0.5" result="fx2_is_off"/>
      <feComposite in="SourceAlpha" in2="fx2_is_off" operator="out" result="fx2_is_inv"/>
      <feFlood flood-color="#AAB6BC" flood-opacity="1"/>
      <feComposite in2="fx2_is_inv" operator="in" result="fx2_is_shadow"/>
      <feComposite in="fx2_is_shadow" in2="SourceGraphic" operator="over"/>
      <feDropShadow dx="2" dy="0" stdDeviation="0" flood-color="#000000" flood-opacity="0.35"/>
    </filter>
  </defs>
  <g transform="translate(3.79, 3.79) rotate(-7.11, 32.66, 32.66)">
    <g transform="translate(11.98, 6.53)">
      <rect width="41.38" height="52.26" fill="#838A8F" stroke="#000000" stroke-width="1"/>
      <g transform="translate(6.53, 0)" filter="url(#fx0)">
        <path d="M14.15 0C6.34 0 0 6.34 0 14.15L0 22.87L6.53 22.87L6.53 14.15C6.53 9.95 9.95 6.53 14.15 6.53C18.36 6.53 21.78 9.95 21.78 14.15L21.78 22.87L28.31 22.87L28.31 14.15C28.31 6.34 21.97 0 14.15 0Z" fill="#AFB8BF"/>
      </g>
      <g transform="translate(0, 20.69)">
        <path d="M6.61 0C5.35 0 4.09 0.41 3.25 1.36C1.19 3.67 0 6.79 0 10.89C0 22.31 9.26 31.58 20.69 31.58C32.11 31.58 41.38 22.31 41.38 10.89C41.38 6.79 40.18 3.67 38.13 1.36C37.29 0.41 36.03 0 34.76 0L6.61 0Z" fill="#5A6368"/>
      </g>
    </g>
    <g transform="translate(18.51, 6.53)" filter="url(#fx1)">
      <path d="M14.15 0C6.34 0 0 6.52 0 14.56L0 19.6L6.53 19.6L6.53 14.56C6.53 10.23 9.95 6.72 14.15 6.72C18.36 6.72 21.78 10.23 21.78 14.56L21.78 19.6L28.31 19.6L28.31 14.56C28.31 6.52 21.97 0 14.15 0Z" fill="#A4ADB5"/>
    </g>
    <g transform="translate(11.98, 27.22)" filter="url(#fx2)">
      <path d="M6.45 0C5.13 0 3.82 0.44 2.99 1.46C1.1 3.76 0 6.85 0 10.89C0 22.31 8.77 31.58 19.6 31.58C30.42 31.58 39.2 22.31 39.2 10.89C39.2 6.85 38.1 3.76 36.21 1.46C35.37 0.44 34.06 0 32.75 0L6.45 0Z" fill="#747F87"/>
    </g>
    <g transform="translate(27.22, 34.84)">
      <rect width="8.71" height="14.15" fill="#000000" stroke="#ABABAB" stroke-width="0.3"/>
      <path d="M0 4.36A4.36 4.36 0 1 1 8.71 4.36A4.36 4.36 0 1 1 0 4.36Z" fill="#D9D9D9"/>
      <g transform="translate(1.09, 2.18)">
        <path d="M1 0.99C1.05 0.43 1.52 0 2.08 0L4.45 0C5.01 0 5.48 0.43 5.53 0.99L6.42 10.79C6.48 11.43 5.98 11.98 5.34 11.98L1.19 11.98C0.55 11.98 0.05 11.43 0.11 10.79L1 0.99Z" fill="#D9D9D9"/>
      </g>
    </g>
  </g>
</svg>